# xmcd
#
# Track frame offsets:
#	150
#	14550
#	30069
#	45355
#	61547
#	80138
#	91688
#	109420
#	124398
#	139215
#	153156
#	167279
#	184082
#	200507
#	218149
#
# Disc length: 3122 seconds
#
# Revision: 0
# Processed by: cddbd v1.5.2PL0 Copyright (c) Steve Scherf et al.
# Submitted via: audiograbber 1.83.01
#
DISCID=bb0c300f
DTITLE=Col Millington - Hey Babe
DYEAR=2015
DGENRE=Country
TTITLE0=Hey Babe
TTITLE1=With You By My Side
TTITLE2=Take Me back Down
TTITLE3=Feeling
TTITLE4=Falling In Love With You
TTITLE5=Lámour
TTITLE6=Everyboddy Nedds Someone
TTITLE7=I Love You Still
TTITLE8=I´m Sorry I Hurt You
TTITLE9=I Was Your Man
TTITLE10=Some People
TTITLE11=Did I Tell You (Yellow Roses)
TTITLE12=When Wee Make Love
TTITLE13=Aphrodite
TTITLE14=Roses In Winter
EXTD=
EXTT0=
EXTT1=
EXTT2=
EXTT3=
EXTT4=
EXTT5=
EXTT6=
EXTT7=
EXTT8=
EXTT9=
EXTT10=
EXTT11=
EXTT12=
EXTT13=
EXTT14=
PLAYORDER=
